<?xml version="1.0" encoding="iso-8859-1"?>
<!-- Generator: Adobe Illustrator 19.0.0, SVG Export Plug-In . SVG Version: 6.00 Build 0)  -->
<svg version="1.1" id="Capa_1" xmlns="http://www.w3.org/2000/svg" xmlns:xlink="http://www.w3.org/1999/xlink" x="0px" y="0px"
	 viewBox="0 0 512 512" style="enable-background:new 0 0 512 512;" xml:space="preserve">
<g>
	<g>
		<path style="fill: #fff;" d="M278.243,251.796c-1.395-2.061-3.722-3.295-6.21-3.295h-20.987l11.918-29.795c1.539-3.846-0.332-8.211-4.178-9.749
			c-3.847-1.54-8.211,0.332-9.749,4.178l-16.032,40.081c-0.924,2.311-0.643,4.93,0.753,6.99c1.394,2.06,3.721,3.294,6.21,3.294
			h20.987l-11.918,29.795c-1.539,3.846,0.332,8.211,4.178,9.749c0.914,0.366,1.856,0.539,2.783,0.539
			c2.977,0,5.793-1.784,6.966-4.716l16.032-40.081C279.92,256.475,279.639,253.856,278.243,251.796z"/>
	</g>
</g>
<g>
	<g>
		<path  style="fill: #fff;" d="M256,168.339c-48.336,0-87.661,39.325-87.661,87.661s39.325,87.661,87.661,87.661s87.661-39.325,87.661-87.661
			S304.336,168.339,256,168.339z M256,328.661c-40.065,0-72.661-32.596-72.661-72.661s32.596-72.661,72.661-72.661
			s72.661,32.596,72.661,72.661S296.065,328.661,256,328.661z"/>
	</g>
</g>
<g>
	<g>
		<path  style="fill: #fff;" d="M349.278,332.25c-3.037-2.816-7.782-2.638-10.599,0.399c-21.275,22.938-51.41,36.093-82.679,36.093
			c-62.166,0-112.742-50.576-112.742-112.742V143.258H145c7.617,0,14.054-5.453,15.305-12.966l6.105-36.627
			c5.258-2.487,8.913-7.828,8.913-14.02V63.613c0-8.556-6.96-15.516-15.516-15.516h-0.516V7.5c0-4.142-3.358-7.5-7.5-7.5
			c-4.142,0-7.5,3.358-7.5,7.5v40.597h-17.065V7.5c0-4.142-3.358-7.5-7.5-7.5c-4.142,0-7.5,3.358-7.5,7.5v40.597h-0.516
			c-8.556,0-15.516,6.96-15.516,15.516v16.032c0,6.192,3.655,11.534,8.913,14.02l6.105,36.627
			c1.251,7.513,7.688,12.966,15.305,12.966h1.742V256c0,70.437,57.305,127.742,127.742,127.742
			c35.428,0,69.572-14.905,93.676-40.893C352.493,339.812,352.315,335.067,349.278,332.25z M111.709,80.161
			c-0.285,0-0.516-0.231-0.516-0.516V63.613c0-0.285,0.231-0.516,0.516-0.516h48.097c0.285,0,0.516,0.231,0.516,0.516v16.032
			c0,0.285-0.231,0.516-0.516,0.516H111.709z M126.517,128.258c-0.254,0-0.468-0.181-0.51-0.431l-5.444-32.666h30.39l-5.444,32.666
			c-0.042,0.25-0.256,0.431-0.509,0.431H126.517z"/>
	</g>
</g>
<g>
	<g>
		<path style="fill: #fff;" d="M406.893,418.335l-6.105-36.627c-1.251-7.513-7.688-12.966-15.305-12.966h-1.742V256
			c0-70.437-57.305-127.742-127.742-127.742c-35.429,0-69.573,14.905-93.677,40.893c-2.816,3.037-2.638,7.782,0.399,10.599
			c3.037,2.816,7.782,2.638,10.599-0.399c21.275-22.938,51.41-36.093,82.679-36.093c62.166,0,112.742,50.576,112.742,112.742
			v112.742H367c-7.617,0-14.054,5.453-15.305,12.966l-6.105,36.627c-5.258,2.487-8.913,7.828-8.913,14.02v16.032
			c0,8.556,6.96,15.516,15.516,15.516h0.516V504.5c0,4.142,3.358,7.5,7.5,7.5c4.142,0,7.5-3.358,7.5-7.5v-40.597h17.065V504.5
			c0,4.142,3.358,7.5,7.5,7.5c4.142,0,7.5-3.358,7.5-7.5v-40.597h0.516c8.556,0,15.516-6.96,15.516-15.516v-16.032
			C415.807,426.163,412.152,420.821,406.893,418.335z M366.49,384.174c0.043-0.251,0.257-0.432,0.51-0.432h18.483
			c0.253,0,0.468,0.181,0.509,0.432l5.444,32.666h-30.39L366.49,384.174z M400.807,448.387L400.807,448.387
			c0,0.285-0.231,0.516-0.516,0.516h-48.097c-0.285,0-0.516-0.231-0.516-0.516v-16.032c0-0.285,0.231-0.516,0.516-0.516h48.066
			c0.007,0,0.014,0.001,0.022,0.001c0.003,0,0.007-0.001,0.01-0.001c0.284,0,0.515,0.232,0.515,0.516V448.387z"/>
	</g>
</g>
<g>
</g>
<g>
</g>
<g>
</g>
<g>
</g>
<g>
</g>
<g>
</g>
<g>
</g>
<g>
</g>
<g>
</g>
<g>
</g>
<g>
</g>
<g>
</g>
<g>
</g>
<g>
</g>
<g>
</g>
</svg>
