<?xml version="1.0" encoding="iso-8859-1"?>
<!-- Generator: Adobe Illustrator 19.0.0, SVG Export Plug-In . SVG Version: 6.00 Build 0)  -->
<svg version="1.1" id="Capa_1" xmlns="http://www.w3.org/2000/svg" xmlns:xlink="http://www.w3.org/1999/xlink" x="0px" y="0px"
	 viewBox="0 0 512 512" style="enable-background:new 0 0 512 512;" xml:space="preserve">
<g>
	<g>
		<path d="M494.975,165.253l-3.776-22.657c-2.546-15.275-15.633-26.362-31.119-26.362H335.645V59.605
			c0-12.976-10.557-23.532-23.532-23.532H199.887c-12.976,0-23.532,10.557-23.532,23.532v56.629H51.92
			c-15.486,0-28.573,11.087-31.119,26.362l-3.776,22.657C7.206,168.083,0,177.145,0,187.863v32.064
			c0,10.586,7.028,19.56,16.662,22.506l21.227,205.192c1.669,16.135,15.161,28.302,31.381,28.302h373.46
			c16.22,0,29.711-12.167,31.381-28.302l21.227-205.192c9.634-2.947,16.662-11.92,16.662-22.506v-32.064
			C512,177.145,504.794,168.083,494.975,165.253z M460.079,131.234c8.124,0,14.988,5.815,16.324,13.828l3.211,19.269H391.1
			l-1.949-21.189c-0.403-4.379-1.342-8.391-2.713-11.908H460.079z M191.355,59.605c0-4.705,3.828-8.532,8.532-8.532h112.226
			c4.705,0,8.532,3.828,8.532,8.532v8.532h-129.29V59.605z M191.355,83.137h129.29v33.097h-129.29V83.137z M137.785,144.516
			c0.806-8.76,4.399-13.108,5.619-13.282h225.184c1.231,0.177,4.822,4.526,5.627,13.282l1.822,19.815H135.963L137.785,144.516z
			 M35.597,145.062c1.336-8.013,8.2-13.828,16.323-13.828h73.641c-1.37,3.516-2.31,7.528-2.712,11.908l-1.949,21.189H32.386
			L35.597,145.062z M23.526,228.459c-4.702-0.004-8.526-3.83-8.526-8.532v-8.532h65.161v17.064H23.537
			C23.533,228.459,23.53,228.459,23.526,228.459z M364.733,446.426c-0.552,9.669-4.529,14.339-5.71,14.501H152.982
			c-1.19-0.165-5.164-4.835-5.716-14.501l-7.461-130.731c-0.236-4.136-3.804-7.3-7.915-7.061c-4.136,0.236-7.296,3.78-7.061,7.915
			l7.461,130.731c0.288,5.04,1.293,9.656,2.859,13.646H69.27c-8.509,0.001-15.585-6.381-16.461-14.844L31.848,243.459h48.313v0.516
			c0,8.556,6.96,15.516,15.516,15.516h25.896l1.426,24.991c0.228,3.99,3.534,7.073,7.481,7.073c0.144,0,0.289-0.004,0.434-0.012
			c4.135-0.236,7.296-3.78,7.061-7.915l-1.377-24.137h23.209c8.556,0,15.516-6.96,15.516-15.516v-0.516h161.354v0.516
			c0,8.556,6.96,15.516,15.516,15.516h23.209L364.733,446.426z M127.741,219.411c4.142,0,7.5-3.358,7.5-7.5v-8.532h24.565
			c0.285,0,0.516,0.231,0.516,0.516v40.081c0,0.285-0.231,0.516-0.516,0.516H95.677c-0.285,0-0.516-0.231-0.516-0.516v-40.081
			c0-0.285,0.231-0.516,0.516-0.516h24.564v8.532C120.241,216.053,123.599,219.411,127.741,219.411z M351.677,235.902v-32.006
			c0-0.285,0.231-0.516,0.516-0.516h24.565v8.532c0,4.142,3.358,7.5,7.5,7.5c4.142,0,7.5-3.358,7.5-7.5v-8.532h24.564
			c0.285,0,0.516,0.231,0.516,0.516v32.026c0,0.013-0.002,0.025-0.002,0.039c0,0.014,0.002,0.026,0.002,0.039v7.978
			c0,0.285-0.231,0.516-0.516,0.516h-64.129v-0.002c-0.285,0-0.516-0.231-0.516-0.516v-7.958c0-0.02,0.003-0.039,0.003-0.058
			C351.68,235.941,351.677,235.921,351.677,235.902z M459.191,446.082c-0.876,8.463-7.953,14.846-16.461,14.846h-65.88
			c1.565-3.991,2.571-8.607,2.859-13.646l10.718-187.789h25.896c8.556,0,15.516-6.96,15.516-15.516v-0.516h48.313L459.191,446.082z
			 M497,219.927c0,4.702-3.824,8.528-8.525,8.532c-0.003,0-0.007,0-0.01,0H431.84v-17.064H497V219.927z M497,196.395h-67.104
			c-2.649-4.774-7.738-8.016-13.574-8.016h-64.129c-5.836,0-10.925,3.242-13.574,8.016h-10.472c-4.142,0-7.5,3.358-7.5,7.5
			c0,4.142,3.358,7.5,7.5,7.5h8.53v17.064H175.323v-17.064h120.754c4.142,0,7.5-3.358,7.5-7.5c0-4.142-3.358-7.5-7.5-7.5H173.38
			c-2.649-4.774-7.738-8.016-13.574-8.016H95.677c-5.836,0-10.925,3.242-13.574,8.016H15v-8.532c0-4.705,3.828-8.532,8.532-8.532
			h464.905c0.007,0,0.014,0.001,0.022,0.001c0.003,0,0.007-0.001,0.011-0.001c4.704,0.001,8.53,3.828,8.53,8.532V196.395z"/>
	</g>
</g>
<g>
</g>
<g>
</g>
<g>
</g>
<g>
</g>
<g>
</g>
<g>
</g>
<g>
</g>
<g>
</g>
<g>
</g>
<g>
</g>
<g>
</g>
<g>
</g>
<g>
</g>
<g>
</g>
<g>
</g>
</svg>
