<?xml version="1.0" encoding="iso-8859-1"?>
<!-- Generator: Adobe Illustrator 19.0.0, SVG Export Plug-In . SVG Version: 6.00 Build 0)  -->
<svg version="1.1" id="Capa_1" xmlns="http://www.w3.org/2000/svg" xmlns:xlink="http://www.w3.org/1999/xlink" x="0px" y="0px"
	 viewBox="0 0 512 512" style="enable-background:new 0 0 512 512;" xml:space="preserve">
<g>
	<g>
		<path style="fill: #fff;" d="M296.079,497h-16.548V392.274c0-8.556-6.96-15.516-15.516-15.516h-0.517V175.839c0-4.142-3.358-7.5-7.5-7.5
			c-4.142,0-7.5,3.358-7.5,7.5v200.919h-0.516c-8.556,0-15.516,6.96-15.516,15.516V497h-16.548c-4.142,0-7.5,3.358-7.5,7.5
			c0,4.142,3.358,7.5,7.5,7.5h80.161c4.142,0,7.5-3.358,7.5-7.5C303.579,500.358,300.221,497,296.079,497z M264.53,497h-17.064
			V392.274c0-0.285,0.231-0.516,0.516-0.516h16.032c0.285,0,0.516,0.231,0.516,0.516V497z"/>
	</g>
</g>
<g>
	<g>
		<path  style="fill: #fff;" d="M347.858,153.273l-68.76-38.756c0.281-1.45,0.433-2.946,0.433-4.477c0-10.354-6.724-19.16-16.032-22.3V7.5
			c0-4.142-3.358-7.5-7.5-7.5c-4.142,0-7.5,3.358-7.5,7.5v80.24c-9.308,3.139-16.032,11.946-16.032,22.3
			c0,1.531,0.152,3.027,0.433,4.477l-68.76,38.756c-3.608,2.034-4.885,6.608-2.851,10.216c1.378,2.444,3.921,3.819,6.541,3.819
			c1.247,0,2.512-0.312,3.676-0.968l68.805-38.781c2.353,2.109,5.132,3.749,8.19,4.78v11.434c0,4.142,3.358,7.5,7.5,7.5
			c4.142,0,7.5-3.358,7.5-7.5v-11.434c3.058-1.031,5.837-2.671,8.19-4.78l68.805,38.781c1.164,0.656,2.428,0.968,3.676,0.968
			c2.619,0,5.163-1.375,6.541-3.819C352.743,159.881,351.466,155.307,347.858,153.273z M255.998,118.571
			c-4.704,0-8.532-3.828-8.532-8.532s3.827-8.532,8.532-8.532c4.705,0,8.532,3.828,8.532,8.532S260.702,118.571,255.998,118.571z"/>
	</g>
</g>
<g>
</g>
<g>
</g>
<g>
</g>
<g>
</g>
<g>
</g>
<g>
</g>
<g>
</g>
<g>
</g>
<g>
</g>
<g>
</g>
<g>
</g>
<g>
</g>
<g>
</g>
<g>
</g>
<g>
</g>
</svg>
